<svg id="Capa_1" enable-background="new 0 0 512 512" height="512" viewBox="0 0 512 512" width="512" xmlns="http://www.w3.org/2000/svg"><g><circle cx="106" cy="106" r="15"/><circle cx="406" cy="406" r="15"/><path d="m244.086 177.519 30 51.962c4.142 7.174 13.314 9.632 20.49 5.49l22.132-12.777c4.552 3.146 9.324 5.913 14.292 8.286v25.52c0 8.284 6.716 15 15 15h60c8.284 0 15-6.716 15-15v-25.425c5.459-2.504 10.604-5.367 15.316-8.523l23.287 13.021c7.159 4.002 16.209 1.513 20.311-5.592l30-51.962c4.142-7.174 1.684-16.348-5.49-20.49l-21.823-12.6c.268-2.903.4-5.701.4-8.429s-.132-5.526-.4-8.429l21.823-12.6c7.174-4.142 9.632-13.316 5.49-20.49l-30-51.962c-4.102-7.104-13.151-9.595-20.311-5.592l-23.287 13.021c-4.713-3.156-9.856-6.018-15.315-8.522v-26.426c0-8.284-6.716-15-15-15h-60c-8.284 0-15 6.716-15 15v26.52c-4.967 2.374-9.739 5.14-14.292 8.286l-22.132-12.777c-7.175-4.144-16.349-1.685-20.49 5.49l-30 51.962c-4.142 7.174-1.684 16.348 5.49 20.49l21.823 12.6c-.268 2.903-.4 5.701-.4 8.429s.132 5.526.4 8.429l-21.823 12.6c-7.175 4.142-9.633 13.316-5.491 20.49zm58.315-27.871c-.956-5.185-1.401-9.522-1.401-13.648s.445-8.463 1.401-13.648c1.151-6.244-1.753-12.536-7.251-15.71l-17.583-10.151 15-25.981 17.815 10.285c5.5 3.176 12.405 2.543 17.235-1.579 7-5.972 14.875-10.538 23.406-13.57 5.981-2.126 9.976-7.787 9.976-14.134v-21.512h30v21.512c0 6.347 3.995 12.007 9.976 14.134 9.396 3.34 18.064 8.159 24.406 13.57 4.774 4.072 11.579 4.742 17.056 1.681l18.892-10.564 15.103 26.159-17.583 10.151c-5.499 3.174-8.402 9.466-7.251 15.71.957 5.184 1.402 9.521 1.402 13.647s-.445 8.463-1.401 13.648c-1.151 6.244 1.753 12.536 7.251 15.71l17.583 10.151-15.103 26.159-18.892-10.564c-5.476-3.063-12.282-2.391-17.057 1.681-6.341 5.41-15.009 10.229-24.407 13.571-5.98 2.126-9.975 7.786-9.975 14.133v20.511h-30v-20.511c0-6.347-3.995-12.007-9.975-14.133-8.533-3.034-16.408-7.6-23.407-13.571-4.831-4.122-11.735-4.755-17.236-1.579l-17.815 10.285-15-25.981 17.583-10.151c5.499-3.175 8.403-9.467 7.252-15.711z"/><path d="m376 181c24.813 0 45-20.187 45-45s-20.187-45-45-45-45 20.187-45 45 20.187 45 45 45zm0-60c8.271 0 15 6.729 15 15s-6.729 15-15 15-15-6.729-15-15 6.729-15 15-15z"/><path d="m217.423 277.029-22.132 12.777c-4.552-3.146-9.324-5.913-14.292-8.286v-25.52c0-8.284-6.716-15-15-15h-60c-8.284 0-15 6.716-15 15v25.52c-5.055 2.416-9.909 5.238-14.534 8.454l-24.241-13.142c-7.146-3.874-16.076-1.353-20.139 5.687l-30 51.962c-4.142 7.174-1.684 16.348 5.49 20.49l21.823 12.6c-.268 2.903-.4 5.701-.4 8.429s.132 5.526.4 8.429l-21.823 12.6c-7.174 4.142-9.632 13.316-5.49 20.49l30 51.962c4.063 7.039 12.994 9.558 20.139 5.687l24.241-13.142c4.625 3.216 9.478 6.039 14.534 8.454v26.52c0 8.284 6.716 15 15 15h60c8.284 0 15-6.716 15-15v-26.52c4.968-2.373 9.74-5.14 14.292-8.286l22.132 12.777c7.173 4.142 16.349 1.684 20.49-5.49l30-51.962c4.142-7.174 1.684-16.348-5.49-20.49l-21.823-12.6c.268-2.903.4-5.701.4-8.429s-.132-5.526-.4-8.429l21.823-12.6c7.174-4.142 9.632-13.316 5.49-20.49l-30-51.962c-4.141-7.174-13.314-9.633-20.49-5.49zm-7.824 85.323c.956 5.185 1.401 9.522 1.401 13.648s-.445 8.463-1.401 13.648c-1.151 6.244 1.753 12.536 7.251 15.71l17.583 10.151-15 25.981-17.815-10.285c-5.501-3.175-12.404-2.543-17.236 1.579-6.999 5.971-14.874 10.537-23.407 13.571-5.98 2.126-9.975 7.786-9.975 14.133v21.512h-30v-21.511c0-6.347-3.995-12.007-9.975-14.133-8.533-3.034-16.408-7.6-23.407-13.571-4.72-4.027-11.432-4.732-16.885-1.776l-19.968 10.826-15.199-26.325 17.583-10.151c5.499-3.174 8.402-9.466 7.251-15.71-.955-5.186-1.4-9.523-1.4-13.649s.445-8.463 1.401-13.648c1.151-6.244-1.753-12.536-7.251-15.71l-17.583-10.151 15.199-26.325 19.968 10.826c5.454 2.957 12.164 2.25 16.884-1.775 7-5.972 14.875-10.538 23.406-13.57 5.981-2.126 9.976-7.787 9.976-14.134v-20.513h30v20.512c0 6.347 3.995 12.007 9.976 14.134 8.531 3.032 16.406 7.598 23.406 13.57 4.832 4.122 11.734 4.755 17.235 1.579l17.815-10.285 15 25.981-17.583 10.151c-5.497 3.174-8.401 9.466-7.25 15.71z"/><path d="m136 331c-24.813 0-45 20.187-45 45s20.187 45 45 45 45-20.187 45-45-20.187-45-45-45zm0 60c-8.271 0-15-6.729-15-15s6.729-15 15-15 15 6.729 15 15-6.729 15-15 15z"/><path d="m497 391h-17.509c-1.949-9.562-5.731-18.46-10.948-26.33l11.704-11.704c5.858-5.858 5.858-15.355 0-21.213-5.857-5.858-15.355-5.858-21.213 0l-11.704 11.704c-7.869-5.217-16.768-9-26.33-10.948v-16.509c0-8.284-6.716-15-15-15s-15 6.716-15 15v16.509c-9.561 1.949-18.46 5.731-26.33 10.948l-11.704-11.704c-5.857-5.858-15.355-5.858-21.213 0s-5.858 15.355 0 21.213l11.704 11.704c-5.218 7.869-9 16.768-10.948 26.33h-16.509c-8.284 0-15 6.716-15 15s6.716 15 15 15h16.509c1.949 9.562 5.731 18.46 10.948 26.33l-11.704 11.704c-5.858 5.858-5.858 15.355 0 21.213 5.857 5.858 15.355 5.859 21.213 0l11.704-11.704c7.869 5.217 16.768 9 26.33 10.948v17.509c0 8.284 6.716 15 15 15s15-6.716 15-15v-17.509c9.561-1.949 18.46-5.731 26.33-10.948l11.704 11.704c5.857 5.858 15.355 5.859 21.213 0 5.858-5.858 5.858-15.355 0-21.213l-11.704-11.704c5.218-7.869 9-16.768 10.948-26.33h17.509c8.284 0 15-6.716 15-15s-6.716-15-15-15zm-91 60c-24.813 0-45-20.187-45-45s20.187-45 45-45 45 20.187 45 45-20.187 45-45 45z"/><path d="m15 91c-8.284 0-15 6.716-15 15s6.716 15 15 15h17.509c1.949 9.562 5.731 18.46 10.948 26.33l-11.704 11.704c-5.858 5.858-5.858 15.355 0 21.213 5.857 5.858 15.355 5.859 21.213 0l11.704-11.704c7.869 5.217 16.768 9 26.33 10.948v16.509c0 8.284 6.716 15 15 15s15-6.716 15-15v-16.509c9.561-1.949 18.46-5.731 26.33-10.948l11.704 11.704c5.857 5.858 15.355 5.859 21.213 0 5.858-5.858 5.858-15.355 0-21.213l-11.704-11.704c5.218-7.869 9-16.768 10.948-26.33h16.509c8.284 0 15-6.716 15-15s-6.716-15-15-15h-16.509c-1.949-9.562-5.731-18.46-10.948-26.33l11.704-11.704c5.858-5.858 5.858-15.355 0-21.213-5.857-5.858-15.355-5.858-21.213 0l-11.704 11.705c-7.869-5.217-16.768-9-26.33-10.948v-17.51c0-8.284-6.716-15-15-15s-15 6.716-15 15v17.509c-9.561 1.949-18.46 5.731-26.33 10.948l-11.703-11.703c-5.857-5.858-15.355-5.858-21.213 0s-5.858 15.355 0 21.213l11.704 11.703c-5.218 7.869-9 16.768-10.948 26.33zm91-30c24.813 0 45 20.187 45 45s-20.187 45-45 45-45-20.187-45-45 20.187-45 45-45z"/></g></svg>